<svg width="248" height="133" viewBox="0 0 248 133" fill="none" xmlns="http://www.w3.org/2000/svg">
<g filter="url(#filter0_di_1_86)">
<rect x="41" y="31" width="166.579" height="51" rx="10.069" fill="url(#paint0_linear_1_86)" shape-rendering="crispEdges"/>
<rect x="41.5034" y="31.5034" width="165.572" height="49.9931" rx="9.56552" stroke="url(#paint1_linear_1_86)" stroke-width="1.0069" shape-rendering="crispEdges"/>
<rect x="41.5034" y="31.5034" width="165.572" height="49.9931" rx="9.56552" stroke="white" stroke-opacity="0.2" stroke-width="1.0069" shape-rendering="crispEdges"/>
<rect x="41.5034" y="31.5034" width="165.572" height="49.9931" rx="9.56552" stroke="url(#paint2_linear_1_86)" stroke-opacity="0.3" stroke-width="1.0069" shape-rendering="crispEdges"/>
<path d="M72.7744 62V50.3636H77.0357C77.8615 50.3636 78.5452 50.5 79.0869 50.7727C79.6285 51.0417 80.0339 51.4072 80.3028 51.8693C80.5717 52.3277 80.7062 52.8447 80.7062 53.4205C80.7062 53.9053 80.6172 54.3144 80.4392 54.6477C80.2611 54.9773 80.0225 55.2424 79.7232 55.4432C79.4278 55.6402 79.102 55.7841 78.746 55.875V55.9886C79.1323 56.0076 79.5092 56.1326 79.8767 56.3636C80.2479 56.5909 80.5547 56.9148 80.7971 57.3352C81.0395 57.7557 81.1607 58.267 81.1607 58.8693C81.1607 59.464 81.0206 59.9981 80.7403 60.4716C80.4638 60.9413 80.0357 61.3144 79.4562 61.5909C78.8767 61.8636 78.1361 62 77.2346 62H72.7744ZM74.5301 60.4943H77.0642C77.9051 60.4943 78.5073 60.3314 78.871 60.0057C79.2346 59.6799 79.4164 59.2727 79.4164 58.7841C79.4164 58.4167 79.3236 58.0795 79.138 57.7727C78.9524 57.4659 78.6873 57.2216 78.3426 57.0398C78.0017 56.858 77.5964 56.767 77.1267 56.767H74.5301V60.4943ZM74.5301 55.3977H76.8823C77.2763 55.3977 77.6304 55.322 77.9448 55.1705C78.263 55.0189 78.5149 54.8068 78.7005 54.5341C78.8899 54.2576 78.9846 53.9318 78.9846 53.5568C78.9846 53.0758 78.816 52.6723 78.4789 52.3466C78.1418 52.0208 77.6248 51.858 76.9278 51.858H74.5301V55.3977ZM86.7829 62.1761C85.9647 62.1761 85.2507 61.9886 84.6409 61.6136C84.031 61.2386 83.5575 60.714 83.2204 60.0398C82.8833 59.3655 82.7147 58.5777 82.7147 57.6761C82.7147 56.7708 82.8833 55.9792 83.2204 55.3011C83.5575 54.6231 84.031 54.0966 84.6409 53.7216C85.2507 53.3466 85.9647 53.1591 86.7829 53.1591C87.6011 53.1591 88.3151 53.3466 88.9249 53.7216C89.5348 54.0966 90.0083 54.6231 90.3454 55.3011C90.6825 55.9792 90.8511 56.7708 90.8511 57.6761C90.8511 58.5777 90.6825 59.3655 90.3454 60.0398C90.0083 60.714 89.5348 61.2386 88.9249 61.6136C88.3151 61.9886 87.6011 62.1761 86.7829 62.1761ZM86.7886 60.75C87.3189 60.75 87.7583 60.6098 88.1068 60.3295C88.4553 60.0492 88.7128 59.6761 88.8795 59.2102C89.0499 58.7443 89.1352 58.2311 89.1352 57.6705C89.1352 57.1136 89.0499 56.6023 88.8795 56.1364C88.7128 55.6667 88.4553 55.2898 88.1068 55.0057C87.7583 54.7216 87.3189 54.5795 86.7886 54.5795C86.2545 54.5795 85.8113 54.7216 85.459 55.0057C85.1106 55.2898 84.8511 55.6667 84.6806 56.1364C84.514 56.6023 84.4306 57.1136 84.4306 57.6705C84.4306 58.2311 84.514 58.7443 84.6806 59.2102C84.8511 59.6761 85.1106 60.0492 85.459 60.3295C85.8113 60.6098 86.2545 60.75 86.7886 60.75ZM96.4235 62.1761C95.6053 62.1761 94.8913 61.9886 94.2815 61.6136C93.6716 61.2386 93.1981 60.714 92.861 60.0398C92.5239 59.3655 92.3553 58.5777 92.3553 57.6761C92.3553 56.7708 92.5239 55.9792 92.861 55.3011C93.1981 54.6231 93.6716 54.0966 94.2815 53.7216C94.8913 53.3466 95.6053 53.1591 96.4235 53.1591C97.2417 53.1591 97.9557 53.3466 98.5656 53.7216C99.1754 54.0966 99.6489 54.6231 99.986 55.3011C100.323 55.9792 100.492 56.7708 100.492 57.6761C100.492 58.5777 100.323 59.3655 99.986 60.0398C99.6489 60.714 99.1754 61.2386 98.5656 61.6136C97.9557 61.9886 97.2417 62.1761 96.4235 62.1761ZM96.4292 60.75C96.9595 60.75 97.3989 60.6098 97.7474 60.3295C98.0959 60.0492 98.3535 59.6761 98.5201 59.2102C98.6906 58.7443 98.7758 58.2311 98.7758 57.6705C98.7758 57.1136 98.6906 56.6023 98.5201 56.1364C98.3535 55.6667 98.0959 55.2898 97.7474 55.0057C97.3989 54.7216 96.9595 54.5795 96.4292 54.5795C95.8951 54.5795 95.4519 54.7216 95.0997 55.0057C94.7512 55.2898 94.4917 55.6667 94.3213 56.1364C94.1546 56.6023 94.0713 57.1136 94.0713 57.6705C94.0713 58.2311 94.1546 58.7443 94.3213 59.2102C94.4917 59.6761 94.7512 60.0492 95.0997 60.3295C95.4519 60.6098 95.8951 60.75 96.4292 60.75ZM103.951 59.0398L103.939 56.9659H104.235L107.712 53.2727H109.746L105.78 57.4773H105.513L103.951 59.0398ZM102.388 62V50.3636H104.087V62H102.388ZM107.899 62L104.774 57.8523L105.945 56.6648L109.985 62H107.899ZM125.057 50.3636V62H123.443L117.529 53.4659H117.421V62H115.665V50.3636H117.29L123.21 58.9091H123.318V50.3636H125.057ZM131.158 62.1761C130.34 62.1761 129.626 61.9886 129.016 61.6136C128.406 61.2386 127.933 60.714 127.595 60.0398C127.258 59.3655 127.09 58.5777 127.09 57.6761C127.09 56.7708 127.258 55.9792 127.595 55.3011C127.933 54.6231 128.406 54.0966 129.016 53.7216C129.626 53.3466 130.34 53.1591 131.158 53.1591C131.976 53.1591 132.69 53.3466 133.3 53.7216C133.91 54.0966 134.383 54.6231 134.72 55.3011C135.058 55.9792 135.226 56.7708 135.226 57.6761C135.226 58.5777 135.058 59.3655 134.72 60.0398C134.383 60.714 133.91 61.2386 133.3 61.6136C132.69 61.9886 131.976 62.1761 131.158 62.1761ZM131.164 60.75C131.694 60.75 132.133 60.6098 132.482 60.3295C132.83 60.0492 133.088 59.6761 133.254 59.2102C133.425 58.7443 133.51 58.2311 133.51 57.6705C133.51 57.1136 133.425 56.6023 133.254 56.1364C133.088 55.6667 132.83 55.2898 132.482 55.0057C132.133 54.7216 131.694 54.5795 131.164 54.5795C130.629 54.5795 130.186 54.7216 129.834 55.0057C129.486 55.2898 129.226 55.6667 129.056 56.1364C128.889 56.6023 128.806 57.1136 128.806 57.6705C128.806 58.2311 128.889 58.7443 129.056 59.2102C129.226 59.6761 129.486 60.0492 129.834 60.3295C130.186 60.6098 130.629 60.75 131.164 60.75ZM138.749 62L136.181 53.2727H137.936L139.647 59.6818H139.732L141.448 53.2727H143.203L144.908 59.6534H144.993L146.692 53.2727H148.448L145.885 62H144.152L142.379 55.6989H142.249L140.476 62H138.749Z" fill="white"/>
<path d="M166.651 61.8608L172.011 56.5L166.651 51.1391" stroke="white" stroke-width="1.51034" stroke-linecap="round" stroke-linejoin="round"/>
</g>
<defs>
<filter id="filter0_di_1_86" x="0.724136" y="0.793102" width="247.131" height="131.552" filterUnits="userSpaceOnUse" color-interpolation-filters="sRGB">
<feFlood flood-opacity="0" result="BackgroundImageFix"/>
<feColorMatrix in="SourceAlpha" type="matrix" values="0 0 0 0 0 0 0 0 0 0 0 0 0 0 0 0 0 0 127 0" result="hardAlpha"/>
<feOffset dy="10.069"/>
<feGaussianBlur stdDeviation="20.1379"/>
<feComposite in2="hardAlpha" operator="out"/>
<feColorMatrix type="matrix" values="0 0 0 0 0.101961 0 0 0 0 0.384314 0 0 0 0 0.384314 0 0 0 0.5 0"/>
<feBlend mode="normal" in2="BackgroundImageFix" result="effect1_dropShadow_1_86"/>
<feBlend mode="normal" in="SourceGraphic" in2="effect1_dropShadow_1_86" result="shape"/>
<feColorMatrix in="SourceAlpha" type="matrix" values="0 0 0 0 0 0 0 0 0 0 0 0 0 0 0 0 0 0 127 0" result="hardAlpha"/>
<feOffset dy="10.069"/>
<feGaussianBlur stdDeviation="15.1034"/>
<feComposite in2="hardAlpha" operator="arithmetic" k2="-1" k3="1"/>
<feColorMatrix type="matrix" values="0 0 0 0 0.101961 0 0 0 0 0.384314 0 0 0 0 0.384314 0 0 0 0.7 0"/>
<feBlend mode="normal" in2="shape" result="effect2_innerShadow_1_86"/>
</filter>
<linearGradient id="paint0_linear_1_86" x1="124.29" y1="10.1364" x2="124.29" y2="98.8068" gradientUnits="userSpaceOnUse">
<stop stop-opacity="0"/>
<stop offset="1" stop-color="#1A6262"/>
</linearGradient>
<linearGradient id="paint1_linear_1_86" x1="124.29" y1="31" x2="124.29" y2="82" gradientUnits="userSpaceOnUse">
<stop offset="0.171875" stop-color="#1A6262" stop-opacity="0.4"/>
<stop offset="1" stop-color="#1A6262" stop-opacity="0.77"/>
</linearGradient>
<linearGradient id="paint2_linear_1_86" x1="124.29" y1="28.6094" x2="124.29" y2="82" gradientUnits="userSpaceOnUse">
<stop stop-color="#1A6262" stop-opacity="0"/>
<stop offset="1" stop-color="#BDFCFE"/>
</linearGradient>
</defs>
</svg>
