<svg width="126" height="24" viewBox="0 0 126 24" fill="none" xmlns="http://www.w3.org/2000/svg">
<path d="M5.49999 7.73333L3.83333 8.66666L4.76666 6.99999L3.83333 5.33333L5.49999 6.26666L7.16666 5.33333L6.23333 6.99999L7.16666 8.66666L5.49999 7.73333ZM13.5 14.2667L15.1667 13.3333L14.2333 15L15.1667 16.6667L13.5 15.7333L11.8333 16.6667L12.7667 15L11.8333 13.3333L13.5 14.2667ZM15.1667 5.33333L14.2333 6.99999L15.1667 8.66666L13.5 7.73333L11.8333 8.66666L12.7667 6.99999L11.8333 5.33333L13.5 6.26666L15.1667 5.33333ZM9.39333 12.52L11.02 10.8933L9.60666 9.48L7.97999 11.1067L9.39333 12.52ZM10.08 8.85999L11.64 10.42C11.9 10.6667 11.9 11.1 11.64 11.36L3.85999 19.14C3.59999 19.4 3.16666 19.4 2.91999 19.14L1.35999 17.58C1.09999 17.3333 1.09999 16.9 1.35999 16.64L9.13999 8.85999C9.39999 8.59999 9.83333 8.59999 10.08 8.85999Z" fill="#F8A700"/>
<path d="M27.7784 18V6.36364H29.5341V16.4886H34.8068V18H27.7784ZM40.3494 18.1761C39.5313 18.1761 38.8172 17.9886 38.2074 17.6136C37.5975 17.2386 37.1241 16.714 36.7869 16.0398C36.4498 15.3655 36.2812 14.5777 36.2812 13.6761C36.2812 12.7708 36.4498 11.9792 36.7869 11.3011C37.1241 10.6231 37.5975 10.0966 38.2074 9.72159C38.8172 9.34659 39.5313 9.15909 40.3494 9.15909C41.1676 9.15909 41.8816 9.34659 42.4915 9.72159C43.1013 10.0966 43.5748 10.6231 43.9119 11.3011C44.2491 11.9792 44.4176 12.7708 44.4176 13.6761C44.4176 14.5777 44.2491 15.3655 43.9119 16.0398C43.5748 16.714 43.1013 17.2386 42.4915 17.6136C41.8816 17.9886 41.1676 18.1761 40.3494 18.1761ZM40.3551 16.75C40.8854 16.75 41.3248 16.6098 41.6733 16.3295C42.0218 16.0492 42.2794 15.6761 42.446 15.2102C42.6165 14.7443 42.7017 14.2311 42.7017 13.6705C42.7017 13.1136 42.6165 12.6023 42.446 12.1364C42.2794 11.6667 42.0218 11.2898 41.6733 11.0057C41.3248 10.7216 40.8854 10.5795 40.3551 10.5795C39.821 10.5795 39.3778 10.7216 39.0256 11.0057C38.6771 11.2898 38.4176 11.6667 38.2472 12.1364C38.0805 12.6023 37.9972 13.1136 37.9972 13.6705C37.9972 14.2311 38.0805 14.7443 38.2472 15.2102C38.4176 15.6761 38.6771 16.0492 39.0256 16.3295C39.3778 16.6098 39.821 16.75 40.3551 16.75ZM46.3139 18V9.27273H47.956V10.6591H48.0469C48.206 10.1894 48.4863 9.82008 48.8878 9.55114C49.2931 9.27841 49.7514 9.14205 50.2628 9.14205C50.3688 9.14205 50.4938 9.14583 50.6378 9.15341C50.7855 9.16098 50.901 9.17045 50.9844 9.18182V10.8068C50.9162 10.7879 50.795 10.767 50.6207 10.7443C50.4465 10.7178 50.2723 10.7045 50.098 10.7045C49.6965 10.7045 49.3385 10.7898 49.0241 10.9602C48.7135 11.1269 48.4673 11.3598 48.2855 11.6591C48.1037 11.9545 48.0128 12.2917 48.0128 12.6705V18H46.3139ZM55.9034 18.1761C55.0436 18.1761 54.303 17.9924 53.6818 17.625C53.0644 17.2538 52.5871 16.733 52.25 16.0625C51.9167 15.3883 51.75 14.5985 51.75 13.6932C51.75 12.7992 51.9167 12.0114 52.25 11.3295C52.5871 10.6477 53.0568 10.1155 53.6591 9.73295C54.2652 9.35038 54.9735 9.15909 55.7841 9.15909C56.2765 9.15909 56.7538 9.24053 57.2159 9.40341C57.678 9.56629 58.0928 9.82197 58.4602 10.1705C58.8277 10.5189 59.1174 10.9716 59.3295 11.5284C59.5417 12.0814 59.6477 12.7538 59.6477 13.5455V14.1477H52.7102V12.875H57.983C57.983 12.428 57.892 12.0322 57.7102 11.6875C57.5284 11.339 57.2727 11.0644 56.9432 10.8636C56.6174 10.6629 56.2348 10.5625 55.7955 10.5625C55.3182 10.5625 54.9015 10.6799 54.5455 10.9148C54.1932 11.1458 53.9205 11.4489 53.7273 11.8239C53.5379 12.1951 53.4432 12.5985 53.4432 13.0341V14.0284C53.4432 14.6117 53.5455 15.108 53.75 15.517C53.9583 15.9261 54.2481 16.2386 54.6193 16.4545C54.9905 16.6667 55.4242 16.7727 55.9205 16.7727C56.2424 16.7727 56.536 16.7273 56.8011 16.6364C57.0663 16.5417 57.2955 16.4015 57.4886 16.2159C57.6818 16.0303 57.8295 15.8011 57.9318 15.5284L59.5398 15.8182C59.411 16.2917 59.1799 16.7064 58.8466 17.0625C58.517 17.4148 58.1023 17.6894 57.6023 17.8864C57.1061 18.0795 56.5398 18.1761 55.9034 18.1761ZM61.5327 18V9.27273H63.1634V10.6932H63.2713C63.4531 10.2121 63.7505 9.83712 64.1634 9.56818C64.5762 9.29545 65.0705 9.15909 65.6463 9.15909C66.2296 9.15909 66.7183 9.29545 67.1122 9.56818C67.5099 9.84091 67.8035 10.2159 67.9929 10.6932H68.0838C68.2921 10.2273 68.6236 9.85606 69.0781 9.57955C69.5327 9.29924 70.0743 9.15909 70.7031 9.15909C71.4948 9.15909 72.1406 9.4072 72.6406 9.90341C73.1444 10.3996 73.3963 11.1477 73.3963 12.1477V18H71.6974V12.3068C71.6974 11.7159 71.5365 11.2879 71.2145 11.0227C70.8925 10.7576 70.508 10.625 70.0611 10.625C69.508 10.625 69.0781 10.7955 68.7713 11.1364C68.4645 11.4735 68.3111 11.9072 68.3111 12.4375V18H66.6179V12.1989C66.6179 11.7254 66.4702 11.3447 66.1747 11.0568C65.8793 10.7689 65.4948 10.625 65.0213 10.625C64.6993 10.625 64.402 10.7102 64.1293 10.8807C63.8603 11.0473 63.6425 11.2803 63.4759 11.5795C63.313 11.8788 63.2315 12.2254 63.2315 12.6193V18H61.5327ZM81.7997 6.36364V18H80.044V6.36364H81.7997ZM84.2202 21.2727V9.27273H85.8793V10.6875H86.0213C86.1198 10.5057 86.2618 10.2955 86.4474 10.0568C86.633 9.81818 86.8906 9.60985 87.2202 9.43182C87.5497 9.25 87.9853 9.15909 88.527 9.15909C89.2315 9.15909 89.8603 9.33712 90.4134 9.69318C90.9664 10.0492 91.4001 10.5625 91.7145 11.233C92.0327 11.9034 92.1918 12.7102 92.1918 13.6534C92.1918 14.5966 92.0346 15.4053 91.7202 16.0795C91.4058 16.75 90.974 17.267 90.4247 17.6307C89.8755 17.9905 89.2486 18.1705 88.544 18.1705C88.0137 18.1705 87.58 18.0814 87.2429 17.9034C86.9096 17.7254 86.6482 17.517 86.4588 17.2784C86.2694 17.0398 86.1236 16.8277 86.0213 16.642H85.919V21.2727H84.2202ZM85.8849 13.6364C85.8849 14.25 85.974 14.7879 86.152 15.25C86.33 15.7121 86.5876 16.0739 86.9247 16.3352C87.2618 16.5928 87.6747 16.7216 88.1634 16.7216C88.6709 16.7216 89.0952 16.5871 89.4361 16.3182C89.777 16.0455 90.0346 15.6761 90.2088 15.2102C90.3868 14.7443 90.4759 14.2197 90.4759 13.6364C90.4759 13.0606 90.3887 12.5436 90.2145 12.0852C90.044 11.6269 89.7865 11.2652 89.4418 11C89.1009 10.7348 88.6747 10.6023 88.1634 10.6023C87.6709 10.6023 87.2543 10.7292 86.9134 10.983C86.5762 11.2367 86.3205 11.5909 86.1463 12.0455C85.9721 12.5 85.8849 13.0303 85.8849 13.6364ZM100.635 11.4034L99.0952 11.6761C99.0308 11.4792 98.9285 11.2917 98.7884 11.1136C98.652 10.9356 98.4664 10.7898 98.2315 10.6761C97.9967 10.5625 97.7031 10.5057 97.3509 10.5057C96.8698 10.5057 96.4683 10.6136 96.1463 10.8295C95.8243 11.0417 95.6634 11.3163 95.6634 11.6534C95.6634 11.9451 95.7713 12.1799 95.9872 12.358C96.2031 12.536 96.5516 12.6818 97.0327 12.7955L98.419 13.1136C99.2221 13.2992 99.8205 13.5852 100.214 13.9716C100.608 14.358 100.805 14.8598 100.805 15.4773C100.805 16 100.654 16.4659 100.351 16.875C100.052 17.2803 99.633 17.5985 99.0952 17.8295C98.5611 18.0606 97.9418 18.1761 97.2372 18.1761C96.2599 18.1761 95.4626 17.9678 94.8452 17.5511C94.2277 17.1307 93.849 16.5341 93.7088 15.7614L95.3509 15.5114C95.4531 15.9394 95.6634 16.2633 95.9815 16.483C96.2997 16.6989 96.7145 16.8068 97.2259 16.8068C97.7827 16.8068 98.2277 16.6913 98.5611 16.4602C98.8944 16.2254 99.0611 15.9394 99.0611 15.6023C99.0611 15.3295 98.9588 15.1004 98.7543 14.9148C98.5535 14.7292 98.2448 14.589 97.8281 14.4943L96.3509 14.1705C95.5365 13.9848 94.9342 13.6894 94.544 13.2841C94.1577 12.8788 93.9645 12.3655 93.9645 11.7443C93.9645 11.2292 94.1084 10.7784 94.3963 10.392C94.6842 10.0057 95.0819 9.70455 95.5895 9.48864C96.0971 9.26894 96.6785 9.15909 97.3338 9.15909C98.277 9.15909 99.0194 9.36364 99.5611 9.77273C100.103 10.178 100.461 10.7216 100.635 11.4034ZM108.202 14.3807V9.27273H109.906V18H108.236V16.4886H108.145C107.944 16.9545 107.622 17.3428 107.179 17.6534C106.74 17.9602 106.192 18.1136 105.537 18.1136C104.976 18.1136 104.48 17.9905 104.048 17.7443C103.62 17.4943 103.283 17.125 103.037 16.6364C102.795 16.1477 102.673 15.5436 102.673 14.8239V9.27273H104.372V14.6193C104.372 15.214 104.537 15.6875 104.866 16.0398C105.196 16.392 105.624 16.5682 106.151 16.5682C106.469 16.5682 106.785 16.4886 107.099 16.3295C107.418 16.1705 107.681 15.9299 107.889 15.608C108.101 15.286 108.205 14.8769 108.202 14.3807ZM112.189 18V9.27273H113.82V10.6932H113.928C114.109 10.2121 114.407 9.83712 114.82 9.56818C115.232 9.29545 115.727 9.15909 116.303 9.15909C116.886 9.15909 117.375 9.29545 117.768 9.56818C118.166 9.84091 118.46 10.2159 118.649 10.6932H118.74C118.948 10.2273 119.28 9.85606 119.734 9.57955C120.189 9.29924 120.731 9.15909 121.359 9.15909C122.151 9.15909 122.797 9.4072 123.297 9.90341C123.801 10.3996 124.053 11.1477 124.053 12.1477V18H122.354V12.3068C122.354 11.7159 122.193 11.2879 121.871 11.0227C121.549 10.7576 121.164 10.625 120.717 10.625C120.164 10.625 119.734 10.7955 119.428 11.1364C119.121 11.4735 118.967 11.9072 118.967 12.4375V18H117.274V12.1989C117.274 11.7254 117.126 11.3447 116.831 11.0568C116.536 10.7689 116.151 10.625 115.678 10.625C115.356 10.625 115.058 10.7102 114.786 10.8807C114.517 11.0473 114.299 11.2803 114.132 11.5795C113.969 11.8788 113.888 12.2254 113.888 12.6193V18H112.189Z" fill="url(#paint0_linear_6_64)"/>
<defs>
<linearGradient id="paint0_linear_6_64" x1="26.5" y1="12" x2="125.769" y2="14.9483" gradientUnits="userSpaceOnUse">
<stop stop-color="#FF6700"/>
<stop offset="1" stop-color="#91C499"/>
</linearGradient>
</defs>
</svg>
