<svg width="339" height="362" viewBox="0 0 339 362" fill="none" xmlns="http://www.w3.org/2000/svg">
<g style="mix-blend-mode:plus-lighter" opacity="0.7" filter="url(#filter0_f_3_13)">
<path d="M40.449 192.802C67.1676 259.078 85.0454 341.546 167.325 328.663C349.314 300.168 308.055 130.005 255.365 150.231C157.439 187.821 198.236 146.607 110.762 89.3115C23.2875 32.0158 7.05079 109.958 40.449 192.802Z" stroke="url(#paint0_linear_3_13)" stroke-width="0.469924"/>
<path d="M45.8182 191.81C70.925 257.033 87.1368 337.955 167.797 326.624C346.206 301.563 308.481 134.524 256.644 153.491C160.301 188.742 200.832 149.067 116.173 91.6891C31.5141 34.3112 14.4346 110.281 45.8182 191.81Z" stroke="url(#paint1_linear_3_13)" stroke-width="0.469924"/>
<path d="M51.0903 190.899C74.6254 255.036 89.2244 334.379 168.238 324.547C343.004 302.8 308.705 138.952 257.745 156.692C163.035 189.663 203.262 151.509 121.399 94.1227C39.5356 36.7369 21.6715 110.727 51.0903 190.899Z" stroke="url(#paint2_linear_3_13)" stroke-width="0.469924"/>
<path d="M56.258 190.07C78.2619 253.087 91.302 330.822 168.642 322.433C339.707 303.879 308.722 143.289 258.666 159.834C165.636 190.586 205.522 153.932 126.433 96.6117C47.344 39.2914 28.7532 111.298 56.258 190.07Z" stroke="url(#paint3_linear_3_13)" stroke-width="0.469924"/>
<path d="M61.3197 189.318C81.8337 251.184 93.3692 327.282 169.01 320.281C336.317 304.798 308.536 147.528 259.409 162.912C168.105 191.505 207.611 156.332 131.274 99.1497C54.9368 41.9679 35.6772 111.986 61.3197 189.318Z" stroke="url(#paint4_linear_3_13)" stroke-width="0.469924"/>
<path d="M66.2797 188.64C85.3456 249.324 95.4315 323.756 169.349 318.089C332.845 305.552 308.155 151.663 259.981 165.919C170.446 192.416 209.538 158.701 135.928 101.73C62.3176 44.759 42.4473 112.785 66.2797 188.64Z" stroke="url(#paint5_linear_3_13)" stroke-width="0.469924"/>
<path d="M71.1307 188.037C88.7911 247.508 97.4828 320.249 169.655 315.858C329.288 306.145 307.576 155.693 260.377 168.856C172.656 193.319 211.296 161.042 140.387 104.353C69.4785 47.6636 49.0553 113.697 71.1307 188.037Z" stroke="url(#paint6_linear_3_13)" stroke-width="0.469924"/>
<path d="M75.8733 187.501C92.1712 245.731 99.5245 316.756 169.929 313.585C325.654 306.571 306.805 159.611 260.604 171.714C174.737 194.209 212.89 163.346 144.655 107.009C76.4194 50.6723 55.5011 114.713 75.8733 187.501Z" stroke="url(#paint7_linear_3_13)" stroke-width="0.469924"/>
<path d="M80.5063 187.035C95.4851 243.996 101.556 313.281 170.174 311.273C321.945 306.832 305.843 163.417 260.661 174.495C176.688 195.085 214.321 165.612 148.73 109.698C83.1386 53.7838 61.7826 115.833 80.5063 187.035Z" stroke="url(#paint8_linear_3_13)" stroke-width="0.469924"/>
<path d="M85.0281 186.631C98.7322 242.297 103.578 309.82 170.389 308.918C318.165 306.923 304.695 167.101 260.553 177.19C178.512 195.941 215.589 167.835 152.612 112.412C89.634 56.9889 67.898 117.049 85.0281 186.631Z" stroke="url(#paint9_linear_3_13)" stroke-width="0.469924"/>
<path d="M89.4358 186.292C101.91 240.636 105.587 306.376 170.575 306.522C314.318 306.847 303.361 170.665 260.278 179.8C180.206 196.777 216.694 170.013 156.298 115.149C95.9022 60.2862 73.8433 118.361 89.4358 186.292Z" stroke="url(#paint10_linear_3_13)" stroke-width="0.469924"/>
<path d="M93.7359 186.009C105.025 239.008 107.592 302.945 170.74 304.082C310.414 306.599 301.853 174.1 259.848 182.317C181.779 197.588 217.646 172.139 159.798 117.903C101.95 63.6662 79.6247 119.761 93.7359 186.009Z" stroke="url(#paint11_linear_3_13)" stroke-width="0.469924"/>
<path d="M97.9176 185.785C108.067 237.415 109.581 299.53 170.875 301.601C306.448 306.181 300.164 177.407 259.255 184.742C183.223 198.375 218.436 174.215 163.1 120.671C107.765 67.1276 85.2306 121.249 97.9176 185.785Z" stroke="url(#paint12_linear_3_13)" stroke-width="0.469924"/>
<path d="M101.982 185.613C111.038 235.851 111.557 296.129 170.983 299.074C302.426 305.589 298.299 180.577 258.503 187.067C184.54 199.129 219.068 176.231 166.208 123.446C113.348 70.6609 90.6616 122.816 101.982 185.613Z" stroke="url(#paint13_linear_3_13)" stroke-width="0.469924"/>
<path d="M105.933 185.496C113.943 234.32 113.524 292.745 171.072 296.507C298.358 304.828 296.268 183.613 257.601 189.295C185.737 199.855 219.549 178.192 169.127 126.229C118.705 74.2666 95.9218 124.465 105.933 185.496Z" stroke="url(#paint14_linear_3_13)" stroke-width="0.469924"/>
<path d="M109.764 185.42C116.773 232.812 115.476 289.369 171.134 293.889C294.24 303.888 294.066 186.502 256.544 191.413C186.807 200.54 219.873 180.083 171.849 129.006C123.826 77.9294 101.002 126.181 109.764 185.42Z" stroke="url(#paint15_linear_3_13)" stroke-width="0.469924"/>
<path d="M113.475 185.395C119.532 231.334 117.416 286.011 171.174 291.231C290.08 302.776 291.701 189.249 255.338 193.427C187.755 201.191 220.045 181.91 174.379 131.782C128.714 81.6536 105.905 127.97 113.475 185.395Z" stroke="url(#paint16_linear_3_13)" stroke-width="0.469924"/>
<path d="M117.072 185.409C122.223 229.879 119.347 282.664 171.198 288.525C285.887 301.488 289.181 191.846 253.99 195.328C188.586 201.799 220.073 183.666 176.722 134.547C133.372 85.4277 110.633 129.822 117.072 185.409Z" stroke="url(#paint17_linear_3_13)" stroke-width="0.469924"/>
<path d="M120.547 185.467C124.84 228.45 121.262 279.334 171.201 285.777C281.658 300.027 286.504 194.294 252.498 197.118C189.296 202.368 219.951 185.351 178.872 137.302C137.794 89.2522 115.18 131.738 120.547 185.467Z" stroke="url(#paint18_linear_3_13)" stroke-width="0.469924"/>
<path d="M123.903 185.558C127.387 227.038 123.167 276.013 171.187 282.979C277.402 298.387 283.677 196.583 250.867 198.788C189.89 202.886 219.685 186.955 180.834 140.035C141.982 93.1136 119.548 133.707 123.903 185.558Z" stroke="url(#paint19_linear_3_13)" stroke-width="0.469924"/>
<path d="M127.132 185.683C129.855 225.646 125.052 272.703 171.151 280.134C273.114 296.57 280.696 198.713 249.094 200.337C190.36 203.356 219.271 188.48 182.6 142.745C145.929 97.0105 123.728 135.728 127.132 185.683Z" stroke="url(#paint20_linear_3_13)" stroke-width="0.469924"/>
<path d="M130.247 185.84C132.258 224.274 126.931 269.408 171.106 277.245C268.814 294.578 277.579 200.683 247.194 201.765C190.723 203.776 218.722 189.922 184.185 145.431C149.648 100.939 127.733 137.798 130.247 185.84Z" stroke="url(#paint21_linear_3_13)" stroke-width="0.469924"/>
<path d="M133.234 186.024C134.582 222.916 128.791 266.123 171.04 274.306C264.49 292.407 274.317 202.487 245.158 203.065C190.966 204.14 218.03 191.276 185.577 148.083C153.125 104.89 131.549 139.91 133.234 186.024Z" stroke="url(#paint22_linear_3_13)" stroke-width="0.469924"/>
<path d="M136.102 186.235C136.836 221.574 130.64 262.85 170.965 271.322C260.158 290.061 270.922 204.124 242.998 204.238C191.1 204.449 217.204 192.543 186.787 150.702C156.37 108.861 135.185 142.062 136.102 186.235Z" stroke="url(#paint23_linear_3_13)" stroke-width="0.469924"/>
<path d="M138.845 186.466C139.014 220.242 132.472 259.587 170.875 268.289C255.816 287.536 267.394 205.589 240.712 205.277C191.12 204.697 216.242 193.714 187.809 153.279C159.376 112.844 138.634 144.247 138.845 186.466Z" stroke="url(#paint24_linear_3_13)" stroke-width="0.469924"/>
<path d="M141.463 186.721C141.117 218.925 134.288 256.338 170.771 265.211C251.466 284.838 263.737 206.884 238.302 206.185C191.029 204.888 215.145 194.794 188.644 155.816C162.143 116.838 141.895 146.466 141.463 186.721Z" stroke="url(#paint25_linear_3_13)" stroke-width="0.469924"/>
<path d="M143.959 186.988C143.147 217.613 136.091 253.095 170.659 262.082C247.119 281.959 259.959 207.998 235.776 206.953C190.832 205.01 213.922 195.771 189.299 158.301C164.677 120.831 144.974 148.707 143.959 186.988Z" stroke="url(#paint26_linear_3_13)" stroke-width="0.469924"/>
<path d="M146.331 187.269C145.103 216.308 137.878 249.862 170.538 258.904C242.776 278.903 256.062 208.934 233.136 207.581C190.528 205.066 212.571 196.647 189.772 160.733C166.974 124.819 147.866 150.969 146.331 187.269Z" stroke="url(#paint27_linear_3_13)" stroke-width="0.469924"/>
<path d="M148.579 187.562C146.984 215.011 139.651 246.641 170.408 255.68C238.44 275.674 252.051 209.691 230.385 208.069C190.12 205.054 211.095 197.42 190.066 163.11C169.036 128.801 150.572 153.25 148.579 187.562Z" stroke="url(#paint28_linear_3_13)" stroke-width="0.469924"/>
<path d="M150.702 187.861C148.791 213.716 141.407 243.427 170.272 252.406C234.117 272.266 247.929 210.261 227.527 208.41C189.608 204.97 209.498 198.084 190.18 165.425C170.863 132.766 153.091 155.542 150.702 187.861Z" stroke="url(#paint29_linear_3_13)" stroke-width="0.469924"/>
<path d="M152.704 188.164C150.526 212.422 143.15 240.221 170.132 249.083C229.811 268.683 243.704 210.645 224.566 208.604C188.998 204.811 207.783 198.638 190.12 167.675C172.457 136.712 155.426 157.842 152.704 188.164Z" stroke="url(#paint30_linear_3_13)" stroke-width="0.469924"/>
<path d="M154.578 188.474C152.183 211.133 144.873 237.027 169.983 245.715C225.523 264.93 239.374 210.845 221.501 208.654C188.284 204.581 205.948 199.083 189.881 169.859C173.814 140.635 157.571 160.15 154.578 188.474Z" stroke="url(#paint31_linear_3_13)" stroke-width="0.469924"/>
<path d="M156.329 188.78C153.767 209.84 146.582 233.84 169.833 242.296C221.26 261 234.95 210.852 218.342 208.55C187.475 204.27 204.001 199.411 189.471 171.969C174.941 144.526 159.531 162.455 156.329 188.78Z" stroke="url(#paint32_linear_3_13)" stroke-width="0.469924"/>
<path d="M157.955 189.079C155.276 208.54 148.272 230.656 169.678 238.825C217.024 256.894 230.431 210.663 215.087 208.288C186.568 203.875 201.942 199.618 188.888 173.997C175.834 148.377 161.304 164.752 157.955 189.079Z" stroke="url(#paint33_linear_3_13)" stroke-width="0.469924"/>
<path d="M159.461 189.374C156.714 207.239 149.95 227.483 169.526 235.309C212.825 252.619 225.829 210.282 211.746 207.875C185.572 203.402 199.778 199.708 188.139 175.949C176.5 152.189 162.895 167.043 159.461 189.374Z" stroke="url(#paint34_linear_3_13)" stroke-width="0.469924"/>
<path d="M160.842 189.66C158.077 205.931 151.61 224.317 169.372 231.744C208.66 248.172 221.143 209.706 208.318 207.305C184.482 202.844 197.507 199.676 187.221 177.815C176.935 155.955 164.298 169.32 160.842 189.66Z" stroke="url(#paint35_linear_3_13)" stroke-width="0.469924"/>
<path d="M162.1 189.933C159.366 204.615 153.252 221.158 169.219 228.131C204.536 243.556 216.379 208.931 204.808 206.575C183.304 202.198 195.134 199.518 186.138 179.593C177.141 159.668 165.517 171.58 162.1 189.933Z" stroke="url(#paint36_linear_3_13)" stroke-width="0.469924"/>
<path d="M163.235 190.188C160.582 203.287 154.878 218.002 169.069 224.467C200.456 238.767 211.542 207.954 201.22 205.683C182.037 201.463 192.663 199.232 184.892 181.276C177.122 163.321 166.551 173.815 163.235 190.188Z" stroke="url(#paint37_linear_3_13)" stroke-width="0.469924"/>
<path d="M164.248 190.427C161.725 201.948 156.487 214.854 168.921 220.757C196.425 233.813 206.636 206.777 197.558 204.63C180.686 200.638 190.095 198.818 183.486 182.865C176.877 166.912 167.402 176.025 164.248 190.427Z" stroke="url(#paint38_linear_3_13)" stroke-width="0.469924"/>
<path d="M165.14 190.643C162.795 200.594 158.078 211.709 168.779 216.996C192.446 228.69 201.667 205.396 193.826 203.41C179.252 199.719 187.434 198.27 181.921 184.352C176.409 170.434 168.07 178.203 165.14 190.643Z" stroke="url(#paint39_linear_3_13)" stroke-width="0.469924"/>
<path d="M165.912 190.834C163.796 199.225 159.655 208.569 168.643 213.187C188.525 223.402 196.641 203.81 190.029 202.024C177.74 198.705 184.686 197.588 180.203 185.735C175.721 173.881 168.558 180.345 165.912 190.834Z" stroke="url(#paint40_linear_3_13)" stroke-width="0.469924"/>
</g>
<defs>
<filter id="filter0_f_3_13" x="4.10303" y="49.3908" width="316.384" height="300.849" filterUnits="userSpaceOnUse" color-interpolation-filters="sRGB">
<feFlood flood-opacity="0" result="BackgroundImageFix"/>
<feBlend mode="normal" in="SourceGraphic" in2="BackgroundImageFix" result="shape"/>
<feGaussianBlur stdDeviation="10" result="effect1_foregroundBlur_3_13"/>
</filter>
<linearGradient id="paint0_linear_3_13" x1="217.723" y1="315.319" x2="114.373" y2="46.0826" gradientUnits="userSpaceOnUse">
<stop stop-color="#1A6262"/>
<stop offset="0.25" stop-color="#2A9A9A"/>
<stop offset="0.389423" stop-color="#B0FFFF"/>
<stop offset="0.591346" stop-color="#DA5900"/>
<stop offset="0.721154" stop-color="#FF6700"/>
<stop offset="0.822115" stop-color="#FF8633"/>
<stop offset="0.903846" stop-color="#260E29"/>
<stop offset="0.9999" stop-color="#F2E8F5"/>
</linearGradient>
<linearGradient id="paint1_linear_3_13" x1="217.288" y1="314.351" x2="120.371" y2="49.471" gradientUnits="userSpaceOnUse">
<stop stop-color="#1A6262"/>
<stop offset="0.25" stop-color="#2A9A9A"/>
<stop offset="0.389423" stop-color="#B0FFFF"/>
<stop offset="0.591346" stop-color="#DA5900"/>
<stop offset="0.721154" stop-color="#FF6700"/>
<stop offset="0.822115" stop-color="#FF8633"/>
<stop offset="0.903846" stop-color="#260E29"/>
<stop offset="0.9999" stop-color="#F2E8F5"/>
</linearGradient>
<linearGradient id="paint2_linear_3_13" x1="216.8" y1="313.313" x2="126.152" y2="52.9227" gradientUnits="userSpaceOnUse">
<stop stop-color="#1A6262"/>
<stop offset="0.25" stop-color="#2A9A9A"/>
<stop offset="0.389423" stop-color="#B0FFFF"/>
<stop offset="0.591346" stop-color="#DA5900"/>
<stop offset="0.721154" stop-color="#FF6700"/>
<stop offset="0.822115" stop-color="#FF8633"/>
<stop offset="0.903846" stop-color="#260E29"/>
<stop offset="0.9999" stop-color="#F2E8F5"/>
</linearGradient>
<linearGradient id="paint3_linear_3_13" x1="216.256" y1="312.207" x2="131.711" y2="56.4368" gradientUnits="userSpaceOnUse">
<stop stop-color="#1A6262"/>
<stop offset="0.25" stop-color="#2A9A9A"/>
<stop offset="0.389423" stop-color="#B0FFFF"/>
<stop offset="0.591346" stop-color="#DA5900"/>
<stop offset="0.721154" stop-color="#FF6700"/>
<stop offset="0.822115" stop-color="#FF8633"/>
<stop offset="0.903846" stop-color="#260E29"/>
<stop offset="0.9999" stop-color="#F2E8F5"/>
</linearGradient>
<linearGradient id="paint4_linear_3_13" x1="215.656" y1="311.029" x2="137.046" y2="60.0059" gradientUnits="userSpaceOnUse">
<stop stop-color="#1A6262"/>
<stop offset="0.25" stop-color="#2A9A9A"/>
<stop offset="0.389423" stop-color="#B0FFFF"/>
<stop offset="0.591346" stop-color="#DA5900"/>
<stop offset="0.721154" stop-color="#FF6700"/>
<stop offset="0.822115" stop-color="#FF8633"/>
<stop offset="0.903846" stop-color="#260E29"/>
<stop offset="0.9999" stop-color="#F2E8F5"/>
</linearGradient>
<linearGradient id="paint5_linear_3_13" x1="215.008" y1="309.778" x2="142.162" y2="63.6228" gradientUnits="userSpaceOnUse">
<stop stop-color="#1A6262"/>
<stop offset="0.25" stop-color="#2A9A9A"/>
<stop offset="0.389423" stop-color="#B0FFFF"/>
<stop offset="0.591346" stop-color="#DA5900"/>
<stop offset="0.721154" stop-color="#FF6700"/>
<stop offset="0.822115" stop-color="#FF8633"/>
<stop offset="0.903846" stop-color="#260E29"/>
<stop offset="0.9999" stop-color="#F2E8F5"/>
</linearGradient>
<linearGradient id="paint6_linear_3_13" x1="214.309" y1="308.455" x2="147.053" y2="67.2864" gradientUnits="userSpaceOnUse">
<stop stop-color="#1A6262"/>
<stop offset="0.25" stop-color="#2A9A9A"/>
<stop offset="0.389423" stop-color="#B0FFFF"/>
<stop offset="0.591346" stop-color="#DA5900"/>
<stop offset="0.721154" stop-color="#FF6700"/>
<stop offset="0.822115" stop-color="#FF8633"/>
<stop offset="0.903846" stop-color="#260E29"/>
<stop offset="0.9999" stop-color="#F2E8F5"/>
</linearGradient>
<linearGradient id="paint7_linear_3_13" x1="213.562" y1="307.056" x2="151.72" y2="70.9875" gradientUnits="userSpaceOnUse">
<stop stop-color="#1A6262"/>
<stop offset="0.25" stop-color="#2A9A9A"/>
<stop offset="0.389423" stop-color="#B0FFFF"/>
<stop offset="0.591346" stop-color="#DA5900"/>
<stop offset="0.721154" stop-color="#FF6700"/>
<stop offset="0.822115" stop-color="#FF8633"/>
<stop offset="0.903846" stop-color="#260E29"/>
<stop offset="0.9999" stop-color="#F2E8F5"/>
</linearGradient>
<linearGradient id="paint8_linear_3_13" x1="212.769" y1="305.584" x2="156.164" y2="74.7247" gradientUnits="userSpaceOnUse">
<stop stop-color="#1A6262"/>
<stop offset="0.25" stop-color="#2A9A9A"/>
<stop offset="0.389423" stop-color="#B0FFFF"/>
<stop offset="0.591346" stop-color="#DA5900"/>
<stop offset="0.721154" stop-color="#FF6700"/>
<stop offset="0.822115" stop-color="#FF8633"/>
<stop offset="0.903846" stop-color="#260E29"/>
<stop offset="0.9999" stop-color="#F2E8F5"/>
</linearGradient>
<linearGradient id="paint9_linear_3_13" x1="211.931" y1="304.034" x2="160.383" y2="78.4889" gradientUnits="userSpaceOnUse">
<stop stop-color="#1A6262"/>
<stop offset="0.25" stop-color="#2A9A9A"/>
<stop offset="0.389423" stop-color="#B0FFFF"/>
<stop offset="0.591346" stop-color="#DA5900"/>
<stop offset="0.721154" stop-color="#FF6700"/>
<stop offset="0.822115" stop-color="#FF8633"/>
<stop offset="0.903846" stop-color="#260E29"/>
<stop offset="0.9999" stop-color="#F2E8F5"/>
</linearGradient>
<linearGradient id="paint10_linear_3_13" x1="211.05" y1="302.41" x2="164.376" y2="82.2789" gradientUnits="userSpaceOnUse">
<stop stop-color="#1A6262"/>
<stop offset="0.25" stop-color="#2A9A9A"/>
<stop offset="0.389423" stop-color="#B0FFFF"/>
<stop offset="0.591346" stop-color="#DA5900"/>
<stop offset="0.721154" stop-color="#FF6700"/>
<stop offset="0.822115" stop-color="#FF8633"/>
<stop offset="0.903846" stop-color="#260E29"/>
<stop offset="0.9999" stop-color="#F2E8F5"/>
</linearGradient>
<linearGradient id="paint11_linear_3_13" x1="210.133" y1="300.706" x2="168.151" y2="86.0855" gradientUnits="userSpaceOnUse">
<stop stop-color="#1A6262"/>
<stop offset="0.25" stop-color="#2A9A9A"/>
<stop offset="0.389423" stop-color="#B0FFFF"/>
<stop offset="0.591346" stop-color="#DA5900"/>
<stop offset="0.721154" stop-color="#FF6700"/>
<stop offset="0.822115" stop-color="#FF8633"/>
<stop offset="0.903846" stop-color="#260E29"/>
<stop offset="0.9999" stop-color="#F2E8F5"/>
</linearGradient>
<linearGradient id="paint12_linear_3_13" x1="209.174" y1="298.926" x2="171.697" y2="89.9074" gradientUnits="userSpaceOnUse">
<stop stop-color="#1A6262"/>
<stop offset="0.25" stop-color="#2A9A9A"/>
<stop offset="0.389423" stop-color="#B0FFFF"/>
<stop offset="0.591346" stop-color="#DA5900"/>
<stop offset="0.721154" stop-color="#FF6700"/>
<stop offset="0.822115" stop-color="#FF8633"/>
<stop offset="0.903846" stop-color="#260E29"/>
<stop offset="0.9999" stop-color="#F2E8F5"/>
</linearGradient>
<linearGradient id="paint13_linear_3_13" x1="208.176" y1="297.064" x2="175.017" y2="93.7355" gradientUnits="userSpaceOnUse">
<stop stop-color="#1A6262"/>
<stop offset="0.25" stop-color="#2A9A9A"/>
<stop offset="0.389423" stop-color="#B0FFFF"/>
<stop offset="0.591346" stop-color="#DA5900"/>
<stop offset="0.721154" stop-color="#FF6700"/>
<stop offset="0.822115" stop-color="#FF8633"/>
<stop offset="0.903846" stop-color="#260E29"/>
<stop offset="0.9999" stop-color="#F2E8F5"/>
</linearGradient>
<linearGradient id="paint14_linear_3_13" x1="207.148" y1="295.127" x2="178.118" y2="97.5705" gradientUnits="userSpaceOnUse">
<stop stop-color="#1A6262"/>
<stop offset="0.25" stop-color="#2A9A9A"/>
<stop offset="0.389423" stop-color="#B0FFFF"/>
<stop offset="0.591346" stop-color="#DA5900"/>
<stop offset="0.721154" stop-color="#FF6700"/>
<stop offset="0.822115" stop-color="#FF8633"/>
<stop offset="0.903846" stop-color="#260E29"/>
<stop offset="0.9999" stop-color="#F2E8F5"/>
</linearGradient>
<linearGradient id="paint15_linear_3_13" x1="206.082" y1="293.104" x2="180.992" y2="101.397" gradientUnits="userSpaceOnUse">
<stop stop-color="#1A6262"/>
<stop offset="0.25" stop-color="#2A9A9A"/>
<stop offset="0.389423" stop-color="#B0FFFF"/>
<stop offset="0.591346" stop-color="#DA5900"/>
<stop offset="0.721154" stop-color="#FF6700"/>
<stop offset="0.822115" stop-color="#FF8633"/>
<stop offset="0.903846" stop-color="#260E29"/>
<stop offset="0.9999" stop-color="#F2E8F5"/>
</linearGradient>
<linearGradient id="paint16_linear_3_13" x1="204.985" y1="291.004" x2="183.642" y2="105.221" gradientUnits="userSpaceOnUse">
<stop stop-color="#1A6262"/>
<stop offset="0.25" stop-color="#2A9A9A"/>
<stop offset="0.389423" stop-color="#B0FFFF"/>
<stop offset="0.591346" stop-color="#DA5900"/>
<stop offset="0.721154" stop-color="#FF6700"/>
<stop offset="0.822115" stop-color="#FF8633"/>
<stop offset="0.903846" stop-color="#260E29"/>
<stop offset="0.9999" stop-color="#F2E8F5"/>
</linearGradient>
<linearGradient id="paint17_linear_3_13" x1="203.864" y1="288.82" x2="186.075" y2="109.03" gradientUnits="userSpaceOnUse">
<stop stop-color="#1A6262"/>
<stop offset="0.25" stop-color="#2A9A9A"/>
<stop offset="0.389423" stop-color="#B0FFFF"/>
<stop offset="0.591346" stop-color="#DA5900"/>
<stop offset="0.721154" stop-color="#FF6700"/>
<stop offset="0.822115" stop-color="#FF8633"/>
<stop offset="0.903846" stop-color="#260E29"/>
<stop offset="0.9999" stop-color="#F2E8F5"/>
</linearGradient>
<linearGradient id="paint18_linear_3_13" x1="202.713" y1="286.558" x2="188.283" y2="112.825" gradientUnits="userSpaceOnUse">
<stop stop-color="#1A6262"/>
<stop offset="0.25" stop-color="#2A9A9A"/>
<stop offset="0.389423" stop-color="#B0FFFF"/>
<stop offset="0.591346" stop-color="#DA5900"/>
<stop offset="0.721154" stop-color="#FF6700"/>
<stop offset="0.822115" stop-color="#FF8633"/>
<stop offset="0.903846" stop-color="#260E29"/>
<stop offset="0.9999" stop-color="#F2E8F5"/>
</linearGradient>
<linearGradient id="paint19_linear_3_13" x1="201.539" y1="284.21" x2="190.274" y2="116.593" gradientUnits="userSpaceOnUse">
<stop stop-color="#1A6262"/>
<stop offset="0.25" stop-color="#2A9A9A"/>
<stop offset="0.389423" stop-color="#B0FFFF"/>
<stop offset="0.591346" stop-color="#DA5900"/>
<stop offset="0.721154" stop-color="#FF6700"/>
<stop offset="0.822115" stop-color="#FF8633"/>
<stop offset="0.903846" stop-color="#260E29"/>
<stop offset="0.9999" stop-color="#F2E8F5"/>
</linearGradient>
<linearGradient id="paint20_linear_3_13" x1="200.335" y1="281.779" x2="192.038" y2="120.334" gradientUnits="userSpaceOnUse">
<stop stop-color="#1A6262"/>
<stop offset="0.25" stop-color="#2A9A9A"/>
<stop offset="0.389423" stop-color="#B0FFFF"/>
<stop offset="0.591346" stop-color="#DA5900"/>
<stop offset="0.721154" stop-color="#FF6700"/>
<stop offset="0.822115" stop-color="#FF8633"/>
<stop offset="0.903846" stop-color="#260E29"/>
<stop offset="0.9999" stop-color="#F2E8F5"/>
</linearGradient>
<linearGradient id="paint21_linear_3_13" x1="199.119" y1="279.267" x2="193.592" y2="124.044" gradientUnits="userSpaceOnUse">
<stop stop-color="#1A6262"/>
<stop offset="0.25" stop-color="#2A9A9A"/>
<stop offset="0.389423" stop-color="#B0FFFF"/>
<stop offset="0.591346" stop-color="#DA5900"/>
<stop offset="0.721154" stop-color="#FF6700"/>
<stop offset="0.822115" stop-color="#FF8633"/>
<stop offset="0.903846" stop-color="#260E29"/>
<stop offset="0.9999" stop-color="#F2E8F5"/>
</linearGradient>
<linearGradient id="paint22_linear_3_13" x1="197.877" y1="276.669" x2="194.923" y2="127.713" gradientUnits="userSpaceOnUse">
<stop stop-color="#1A6262"/>
<stop offset="0.25" stop-color="#2A9A9A"/>
<stop offset="0.389423" stop-color="#B0FFFF"/>
<stop offset="0.591346" stop-color="#DA5900"/>
<stop offset="0.721154" stop-color="#FF6700"/>
<stop offset="0.822115" stop-color="#FF8633"/>
<stop offset="0.903846" stop-color="#260E29"/>
<stop offset="0.9999" stop-color="#F2E8F5"/>
</linearGradient>
<linearGradient id="paint23_linear_3_13" x1="196.622" y1="273.989" x2="196.041" y2="131.342" gradientUnits="userSpaceOnUse">
<stop stop-color="#1A6262"/>
<stop offset="0.25" stop-color="#2A9A9A"/>
<stop offset="0.389423" stop-color="#B0FFFF"/>
<stop offset="0.591346" stop-color="#DA5900"/>
<stop offset="0.721154" stop-color="#FF6700"/>
<stop offset="0.822115" stop-color="#FF8633"/>
<stop offset="0.903846" stop-color="#260E29"/>
<stop offset="0.9999" stop-color="#F2E8F5"/>
</linearGradient>
<linearGradient id="paint24_linear_3_13" x1="195.349" y1="271.223" x2="196.943" y2="134.921" gradientUnits="userSpaceOnUse">
<stop stop-color="#1A6262"/>
<stop offset="0.25" stop-color="#2A9A9A"/>
<stop offset="0.389423" stop-color="#B0FFFF"/>
<stop offset="0.591346" stop-color="#DA5900"/>
<stop offset="0.721154" stop-color="#FF6700"/>
<stop offset="0.822115" stop-color="#FF8633"/>
<stop offset="0.903846" stop-color="#260E29"/>
<stop offset="0.9999" stop-color="#F2E8F5"/>
</linearGradient>
<linearGradient id="paint25_linear_3_13" x1="194.062" y1="268.377" x2="197.629" y2="138.451" gradientUnits="userSpaceOnUse">
<stop stop-color="#1A6262"/>
<stop offset="0.25" stop-color="#2A9A9A"/>
<stop offset="0.389423" stop-color="#B0FFFF"/>
<stop offset="0.591346" stop-color="#DA5900"/>
<stop offset="0.721154" stop-color="#FF6700"/>
<stop offset="0.822115" stop-color="#FF8633"/>
<stop offset="0.903846" stop-color="#260E29"/>
<stop offset="0.9999" stop-color="#F2E8F5"/>
</linearGradient>
<linearGradient id="paint26_linear_3_13" x1="192.765" y1="265.442" x2="198.105" y2="141.919" gradientUnits="userSpaceOnUse">
<stop stop-color="#1A6262"/>
<stop offset="0.25" stop-color="#2A9A9A"/>
<stop offset="0.389423" stop-color="#B0FFFF"/>
<stop offset="0.591346" stop-color="#DA5900"/>
<stop offset="0.721154" stop-color="#FF6700"/>
<stop offset="0.822115" stop-color="#FF8633"/>
<stop offset="0.903846" stop-color="#260E29"/>
<stop offset="0.9999" stop-color="#F2E8F5"/>
</linearGradient>
<linearGradient id="paint27_linear_3_13" x1="191.458" y1="262.422" x2="198.371" y2="145.324" gradientUnits="userSpaceOnUse">
<stop stop-color="#1A6262"/>
<stop offset="0.25" stop-color="#2A9A9A"/>
<stop offset="0.389423" stop-color="#B0FFFF"/>
<stop offset="0.591346" stop-color="#DA5900"/>
<stop offset="0.721154" stop-color="#FF6700"/>
<stop offset="0.822115" stop-color="#FF8633"/>
<stop offset="0.903846" stop-color="#260E29"/>
<stop offset="0.9999" stop-color="#F2E8F5"/>
</linearGradient>
<linearGradient id="paint28_linear_3_13" x1="190.145" y1="259.32" x2="198.429" y2="148.664" gradientUnits="userSpaceOnUse">
<stop stop-color="#1A6262"/>
<stop offset="0.25" stop-color="#2A9A9A"/>
<stop offset="0.389423" stop-color="#B0FFFF"/>
<stop offset="0.591346" stop-color="#DA5900"/>
<stop offset="0.721154" stop-color="#FF6700"/>
<stop offset="0.822115" stop-color="#FF8633"/>
<stop offset="0.903846" stop-color="#260E29"/>
<stop offset="0.9999" stop-color="#F2E8F5"/>
</linearGradient>
<linearGradient id="paint29_linear_3_13" x1="188.826" y1="256.13" x2="198.28" y2="151.929" gradientUnits="userSpaceOnUse">
<stop stop-color="#1A6262"/>
<stop offset="0.25" stop-color="#2A9A9A"/>
<stop offset="0.389423" stop-color="#B0FFFF"/>
<stop offset="0.591346" stop-color="#DA5900"/>
<stop offset="0.721154" stop-color="#FF6700"/>
<stop offset="0.822115" stop-color="#FF8633"/>
<stop offset="0.903846" stop-color="#260E29"/>
<stop offset="0.9999" stop-color="#F2E8F5"/>
</linearGradient>
<linearGradient id="paint30_linear_3_13" x1="187.506" y1="252.856" x2="197.929" y2="155.118" gradientUnits="userSpaceOnUse">
<stop stop-color="#1A6262"/>
<stop offset="0.25" stop-color="#2A9A9A"/>
<stop offset="0.389423" stop-color="#B0FFFF"/>
<stop offset="0.591346" stop-color="#DA5900"/>
<stop offset="0.721154" stop-color="#FF6700"/>
<stop offset="0.822115" stop-color="#FF8633"/>
<stop offset="0.903846" stop-color="#260E29"/>
<stop offset="0.9999" stop-color="#F2E8F5"/>
</linearGradient>
<linearGradient id="paint31_linear_3_13" x1="186.18" y1="249.501" x2="197.371" y2="158.229" gradientUnits="userSpaceOnUse">
<stop stop-color="#1A6262"/>
<stop offset="0.25" stop-color="#2A9A9A"/>
<stop offset="0.389423" stop-color="#B0FFFF"/>
<stop offset="0.591346" stop-color="#DA5900"/>
<stop offset="0.721154" stop-color="#FF6700"/>
<stop offset="0.822115" stop-color="#FF8633"/>
<stop offset="0.903846" stop-color="#260E29"/>
<stop offset="0.9999" stop-color="#F2E8F5"/>
</linearGradient>
<linearGradient id="paint32_linear_3_13" x1="184.857" y1="246.059" x2="196.615" y2="161.251" gradientUnits="userSpaceOnUse">
<stop stop-color="#1A6262"/>
<stop offset="0.25" stop-color="#2A9A9A"/>
<stop offset="0.389423" stop-color="#B0FFFF"/>
<stop offset="0.591346" stop-color="#DA5900"/>
<stop offset="0.721154" stop-color="#FF6700"/>
<stop offset="0.822115" stop-color="#FF8633"/>
<stop offset="0.903846" stop-color="#260E29"/>
<stop offset="0.9999" stop-color="#F2E8F5"/>
</linearGradient>
<linearGradient id="paint33_linear_3_13" x1="183.535" y1="242.528" x2="195.658" y2="164.178" gradientUnits="userSpaceOnUse">
<stop stop-color="#1A6262"/>
<stop offset="0.25" stop-color="#2A9A9A"/>
<stop offset="0.389423" stop-color="#B0FFFF"/>
<stop offset="0.591346" stop-color="#DA5900"/>
<stop offset="0.721154" stop-color="#FF6700"/>
<stop offset="0.822115" stop-color="#FF8633"/>
<stop offset="0.903846" stop-color="#260E29"/>
<stop offset="0.9999" stop-color="#F2E8F5"/>
</linearGradient>
<linearGradient id="paint34_linear_3_13" x1="182.221" y1="238.917" x2="194.51" y2="167.014" gradientUnits="userSpaceOnUse">
<stop stop-color="#1A6262"/>
<stop offset="0.25" stop-color="#2A9A9A"/>
<stop offset="0.389423" stop-color="#B0FFFF"/>
<stop offset="0.591346" stop-color="#DA5900"/>
<stop offset="0.721154" stop-color="#FF6700"/>
<stop offset="0.822115" stop-color="#FF8633"/>
<stop offset="0.903846" stop-color="#260E29"/>
<stop offset="0.9999" stop-color="#F2E8F5"/>
</linearGradient>
<linearGradient id="paint35_linear_3_13" x1="180.913" y1="235.221" x2="193.167" y2="169.749" gradientUnits="userSpaceOnUse">
<stop stop-color="#1A6262"/>
<stop offset="0.25" stop-color="#2A9A9A"/>
<stop offset="0.389423" stop-color="#B0FFFF"/>
<stop offset="0.591346" stop-color="#DA5900"/>
<stop offset="0.721154" stop-color="#FF6700"/>
<stop offset="0.822115" stop-color="#FF8633"/>
<stop offset="0.903846" stop-color="#260E29"/>
<stop offset="0.9999" stop-color="#F2E8F5"/>
</linearGradient>
<linearGradient id="paint36_linear_3_13" x1="179.612" y1="231.442" x2="191.633" y2="172.38" gradientUnits="userSpaceOnUse">
<stop stop-color="#1A6262"/>
<stop offset="0.25" stop-color="#2A9A9A"/>
<stop offset="0.389423" stop-color="#B0FFFF"/>
<stop offset="0.591346" stop-color="#DA5900"/>
<stop offset="0.721154" stop-color="#FF6700"/>
<stop offset="0.822115" stop-color="#FF8633"/>
<stop offset="0.903846" stop-color="#260E29"/>
<stop offset="0.9999" stop-color="#F2E8F5"/>
</linearGradient>
<linearGradient id="paint37_linear_3_13" x1="178.323" y1="227.576" x2="189.912" y2="174.9" gradientUnits="userSpaceOnUse">
<stop stop-color="#1A6262"/>
<stop offset="0.25" stop-color="#2A9A9A"/>
<stop offset="0.389423" stop-color="#B0FFFF"/>
<stop offset="0.591346" stop-color="#DA5900"/>
<stop offset="0.721154" stop-color="#FF6700"/>
<stop offset="0.822115" stop-color="#FF8633"/>
<stop offset="0.903846" stop-color="#260E29"/>
<stop offset="0.9999" stop-color="#F2E8F5"/>
</linearGradient>
<linearGradient id="paint38_linear_3_13" x1="177.046" y1="223.629" x2="188.004" y2="177.309" gradientUnits="userSpaceOnUse">
<stop stop-color="#1A6262"/>
<stop offset="0.25" stop-color="#2A9A9A"/>
<stop offset="0.389423" stop-color="#B0FFFF"/>
<stop offset="0.591346" stop-color="#DA5900"/>
<stop offset="0.721154" stop-color="#FF6700"/>
<stop offset="0.822115" stop-color="#FF8633"/>
<stop offset="0.903846" stop-color="#260E29"/>
<stop offset="0.9999" stop-color="#F2E8F5"/>
</linearGradient>
<linearGradient id="paint39_linear_3_13" x1="175.783" y1="219.597" x2="185.914" y2="179.598" gradientUnits="userSpaceOnUse">
<stop stop-color="#1A6262"/>
<stop offset="0.25" stop-color="#2A9A9A"/>
<stop offset="0.389423" stop-color="#B0FFFF"/>
<stop offset="0.591346" stop-color="#DA5900"/>
<stop offset="0.721154" stop-color="#FF6700"/>
<stop offset="0.822115" stop-color="#FF8633"/>
<stop offset="0.903846" stop-color="#260E29"/>
<stop offset="0.9999" stop-color="#F2E8F5"/>
</linearGradient>
<linearGradient id="paint40_linear_3_13" x1="174.539" y1="215.482" x2="183.647" y2="181.765" gradientUnits="userSpaceOnUse">
<stop stop-color="#1A6262"/>
<stop offset="0.25" stop-color="#2A9A9A"/>
<stop offset="0.389423" stop-color="#B0FFFF"/>
<stop offset="0.591346" stop-color="#DA5900"/>
<stop offset="0.721154" stop-color="#FF6700"/>
<stop offset="0.822115" stop-color="#FF8633"/>
<stop offset="0.903846" stop-color="#260E29"/>
<stop offset="0.9999" stop-color="#F2E8F5"/>
</linearGradient>
</defs>
</svg>
